<svg width="16" height="16" viewBox="0 0 16 16" fill="none" xmlns="http://www.w3.org/2000/svg">
<g clip-path="url(#clip0_387_16090)">
<path d="M11.332 1.33301H4.66536C2.82442 1.33301 1.33203 2.82539 1.33203 4.66634V11.333C1.33203 13.174 2.82442 14.6663 4.66536 14.6663H11.332C13.173 14.6663 14.6654 13.174 14.6654 11.333V4.66634C14.6654 2.82539 13.173 1.33301 11.332 1.33301Z" stroke="#020202" stroke-width="0.990476" stroke-linecap="round" stroke-linejoin="round"/>
<path d="M10.6678 7.58069C10.75 8.13552 10.6553 8.70217 10.3969 9.20003C10.1386 9.6979 9.72987 10.1016 9.22886 10.3538C8.72784 10.606 8.16007 10.6938 7.6063 10.6046C7.05252 10.5155 6.54095 10.2541 6.14433 9.85746C5.74772 9.46085 5.48626 8.94927 5.39715 8.3955C5.30804 7.84172 5.39582 7.27395 5.64799 6.77294C5.90017 6.27192 6.3039 5.86318 6.80176 5.60485C7.29963 5.34652 7.86628 5.25175 8.42111 5.33402C8.98705 5.41795 9.51101 5.68166 9.91557 6.08623C10.3201 6.49079 10.5838 7.01474 10.6678 7.58069Z" stroke="#020202" stroke-width="0.990476" stroke-linecap="round" stroke-linejoin="round"/>
<path d="M11.668 4.3335H11.6746" stroke="#020202" stroke-width="0.990476" stroke-linecap="round" stroke-linejoin="round"/>
</g>
<defs>
<clipPath id="clip0_387_16090">
<rect width="16" height="16" fill="white"/>
</clipPath>
</defs>
</svg>
